<?xml version="1.0" encoding="utf-8"?>
<!-- Generator: Adobe Illustrator 23.0.6, SVG Export Plug-In . SVG Version: 6.00 Build 0)  -->
<svg version="1.1" id="Layer_1" xmlns="http://www.w3.org/2000/svg" xmlns:xlink="http://www.w3.org/1999/xlink" x="0px" y="0px"
	 viewBox="0 0 1200 225" style="enable-background:new 0 0 1200 225;" xml:space="preserve">
<style type="text/css">
	.st0{enable-background:new    ;}
	.st1{fill:#63656A;}
	.st2{fill:#316195;}
</style>

<polygon class="st1" points="329,87.6 338.2,87.6 361,124.3 361.1,124.3 361.1,87.6 369.4,87.6 369.4,137.4 360.2,137.4 
	337.5,100.8 337.3,100.8 337.3,137.4 329,137.4 "/>
<path class="st1" d="M407.5,129.4c0,2,0.4,2.7,1.9,2.7c0.5,0,1.1,0,2-0.1v5.5c-1.2,0.4-3.7,0.9-5,0.9c-3.2,0-5.5-1.1-6.1-4.4
	c-3.1,3.1-8.2,4.4-12.5,4.4c-6.5,0-12.4-3.5-12.4-10.5c0-9,7.2-10.5,13.9-11.2c5.7-1,10.8-0.4,10.8-5.1c0-4.1-4.3-4.9-7.5-4.9
	c-4.5,0-7.6,1.8-8,5.7h-8c0.6-9.3,8.5-12,16.4-12c7.1,0,14.5,2.9,14.5,10.5L407.5,129.4L407.5,129.4z M399.5,119.3
	c-2.4,1.6-6.3,1.5-9.8,2.2c-3.4,0.6-6.5,1.8-6.5,6c0,3.6,4.5,4.6,7.3,4.6c3.5,0,8.9-1.8,8.9-6.8v-6H399.5z"/>
<path class="st1" d="M411.1,101.3h6V90.5h8v10.8h7.2v5.9H425v19.3c0,3.3,0.3,5,3.8,5c1.1,0,2.2,0,3.4-0.3v6.1
	c-1.8,0.1-3.4,0.4-5.2,0.4c-8.3,0-9.9-3.2-10-9.2v-21.3h-6v-5.9H411.1z"/>
<path class="st1" d="M436.8,87.6h8v7.5h-8V87.6z M436.8,101.3h8v36.1h-8V101.3z"/>
<path class="st1" d="M450.3,119.3c0-11,6.6-19,18.2-19s18.2,8,18.2,19c0,11.1-6.6,19.1-18.2,19.1S450.3,130.5,450.3,119.3
	 M478.8,119.3c0-6.2-3.1-12.7-10.3-12.7c-7.1,0-10.3,6.5-10.3,12.7c0,6.3,3.1,12.8,10.3,12.8C475.7,132.1,478.8,125.6,478.8,119.3"
	/>
<path class="st1" d="M492,101.3h7.5v5.3l0.1,0.1c2.4-4,6.5-6.4,11.2-6.4c7.8,0,12.8,4.2,12.8,12.3v24.8h-8v-22.7
	c-0.1-5.7-2.4-8.1-7.1-8.1c-5.3,0-8.7,4.2-8.7,9.5v21.3h-8v-36.1H492z"/>
<path class="st1" d="M561,129.4c0,2,0.4,2.7,1.9,2.7c0.5,0,1.1,0,1.9-0.1v5.5c-1.2,0.4-3.7,0.9-5,0.9c-3.2,0-5.5-1.1-6.2-4.4
	c-3.1,3.1-8.2,4.4-12.5,4.4c-6.5,0-12.4-3.5-12.4-10.5c0-9,7.2-10.5,13.9-11.2c5.7-1,10.8-0.4,10.8-5.1c0-4.1-4.3-4.9-7.5-4.9
	c-4.5,0-7.6,1.8-8,5.7h-8c0.6-9.3,8.5-12,16.4-12c7.1,0,14.5,2.9,14.5,10.5v18.5H561z M553,119.3c-2.4,1.6-6.3,1.5-9.8,2.2
	c-3.4,0.6-6.5,1.8-6.5,6c0,3.6,4.5,4.6,7.3,4.6c3.5,0,8.9-1.8,8.9-6.8L553,119.3L553,119.3z"/>
<rect x="568.4" y="87.6" class="st1" width="8" height="49.9"/>
<rect x="602.8" y="87.6" class="st1" width="8.7" height="49.9"/>
<path class="st1" d="M619.7,101.3h7.5v5.3l0.1,0.1c2.4-4,6.5-6.4,11.3-6.4c7.8,0,12.8,4.2,12.8,12.3v24.8h-8v-22.7
	c-0.1-5.7-2.4-8.1-7.1-8.1c-5.3,0-8.7,4.2-8.7,9.5v21.3h-8v-36.1H619.7z"/>
<path class="st1" d="M664.4,125.8c0.4,4.6,3.9,6.3,8.2,6.3c3,0,8.2-0.6,8-4.8s-6-4.7-11.8-6c-5.9-1.3-11.6-3.3-11.6-10.7
	c0-7.9,8.5-10.3,15.1-10.3c7.4,0,14.1,3.1,15.1,11.1h-8.3c-0.7-3.8-3.8-4.8-7.3-4.8c-2.3,0-6.6,0.6-6.6,3.7c0,3.9,5.9,4.5,11.7,5.8
	s11.7,3.4,11.7,10.5c0,8.6-8.7,11.7-16.1,11.7c-9.1,0-15.9-4-16-12.6L664.4,125.8L664.4,125.8z"/>
<path class="st1" d="M689.6,101.3h6V90.5h8v10.8h7.2v5.9h-7.2v19.3c0,3.3,0.3,5,3.8,5c1.1,0,2.2,0,3.4-0.3v6.1
	c-1.8,0.1-3.4,0.4-5.2,0.4c-8.3,0-9.9-3.2-10-9.2v-21.3h-6V101.3z"/>
<path class="st1" d="M715.3,87.6h8v7.5h-8V87.6z M715.3,101.3h8v36.1h-8V101.3z"/>
<path class="st1" d="M726.9,101.3h6V90.5h8v10.8h7.2v5.9h-7.2v19.3c0,3.3,0.3,5,3.8,5c1.1,0,2.2,0,3.4-0.3v6.1
	c-1.7,0.1-3.4,0.4-5.2,0.4c-8.3,0-9.8-3.2-10-9.2v-21.3h-6V101.3z"/>
<path class="st1" d="M784.1,137.4h-7.8v-5h-0.1c-2,3.6-6.3,6-10.3,6c-9.4,0-13.5-4.8-13.5-14.2v-22.9h8v22.1c0,6.4,2.6,8.7,6.9,8.7
	c6.6,0,8.9-4.3,8.9-9.8v-21h8v36.1H784.1z"/>
<path class="st1" d="M787.5,101.3h6V90.5h8v10.8h7.2v5.9h-7.2v19.3c0,3.3,0.3,5,3.8,5c1.1,0,2.2,0,3.4-0.3v6.1
	c-1.7,0.1-3.4,0.4-5.2,0.4c-8.3,0-9.9-3.2-10-9.2v-21.3h-6V101.3z"/>
<path class="st1" d="M819.2,121.4c0,5.7,3.1,10.7,9.7,10.7c4.6,0,7.4-2,8.8-6h7.6c-1.8,7.9-8.5,12.3-16.3,12.3
	c-11.3,0-17.7-7.9-17.7-19c0-10.3,6.7-19.1,17.5-19.1c11.4,0,18.4,10.3,17,21.1C845.8,121.4,819.2,121.4,819.2,121.4z M837.8,116.2
	c-0.3-5-3.7-9.6-9.1-9.6c-5.5,0-9.3,4.2-9.5,9.6H837.8z"/>
<path class="st1" d="M856.5,125.8c0.4,4.6,3.9,6.3,8.2,6.3c3,0,8.2-0.6,8-4.8s-6-4.7-11.8-6c-5.9-1.3-11.6-3.3-11.6-10.7
	c0-7.9,8.5-10.3,15.1-10.3c7.4,0,14.1,3.1,15.1,11.1h-8.3c-0.7-3.8-3.8-4.8-7.3-4.8c-2.3,0-6.6,0.6-6.6,3.7c0,3.9,5.9,4.5,11.7,5.8
	s11.7,3.4,11.7,10.5c0,8.6-8.7,11.7-16.1,11.7c-9.1,0-15.9-4-16-12.6L856.5,125.8L856.5,125.8z"/>
<path class="st1" d="M901.7,119.3c0-11,6.6-19,18.2-19c11.6,0,18.2,8,18.2,19c0,11.1-6.6,19.1-18.2,19.1
	C908.3,138.4,901.7,130.5,901.7,119.3 M930.2,119.3c0-6.2-3.1-12.7-10.3-12.7c-7.1,0-10.3,6.5-10.3,12.7c0,6.3,3.1,12.8,10.3,12.8
	C927,132.1,930.2,125.6,930.2,119.3"/>
<path class="st1" d="M939.8,101.3h5.9v-3c0-9.2,4.8-10.8,10-10.8c2.5,0,4.3,0.1,5.6,0.5v6.2c-1.1-0.3-2.1-0.4-3.7-0.4
	c-2.2,0-3.9,0.8-3.9,3.8v3.7h6.8v5.9h-6.8v30.2h-8v-30.2h-5.9L939.8,101.3L939.8,101.3z"/>
<polygon class="st1" points="982.9,87.6 991.7,87.6 991.7,107.4 1014.4,107.4 1014.4,87.6 1023.1,87.6 1023.1,137.4 1014.4,137.4 
	1014.4,114.9 991.7,114.9 991.7,137.4 982.9,137.4 "/>
<path class="st1" d="M1037.3,121.4c0,5.7,3.1,10.7,9.7,10.7c4.6,0,7.4-2,8.8-6h7.5c-1.8,7.9-8.5,12.3-16.4,12.3
	c-11.3,0-17.7-7.9-17.7-19c0-10.3,6.7-19.1,17.5-19.1c11.4,0,18.4,10.3,17,21.1C1063.7,121.4,1037.3,121.4,1037.3,121.4z
	 M1055.9,116.2c-0.3-5-3.7-9.6-9.1-9.6c-5.5,0-9.3,4.2-9.5,9.6H1055.9z"/>
<path class="st1" d="M1098.8,129.4c0,2,0.4,2.7,1.9,2.7c0.5,0,1.1,0,2-0.1v5.5c-1.2,0.4-3.7,0.9-5,0.9c-3.2,0-5.5-1.1-6.2-4.4
	c-3.1,3.1-8.2,4.4-12.5,4.4c-6.5,0-12.4-3.5-12.4-10.5c0-9,7.2-10.5,13.9-11.2c5.7-1,10.8-0.4,10.8-5.1c0-4.1-4.3-4.9-7.5-4.9
	c-4.5,0-7.6,1.8-8,5.7h-8c0.6-9.3,8.5-12,16.4-12c7.1,0,14.5,2.9,14.5,10.5L1098.8,129.4L1098.8,129.4z M1090.8,119.3
	c-2.4,1.6-6.3,1.5-9.8,2.2c-3.4,0.6-6.5,1.8-6.5,6c0,3.6,4.5,4.6,7.3,4.6c3.5,0,8.9-1.8,8.9-6.8L1090.8,119.3L1090.8,119.3z"/>
<rect x="1106.2" y="87.6" class="st1" width="8" height="49.9"/>
<path class="st1" d="M1117.8,101.3h6V90.5h8v10.8h7.2v5.9h-7.2v19.3c0,3.3,0.3,5,3.8,5c1.1,0,2.2,0,3.4-0.3v6.1
	c-1.7,0.1-3.4,0.4-5.2,0.4c-8.3,0-9.8-3.2-10-9.2v-21.3h-6L1117.8,101.3L1117.8,101.3z"/>
<path class="st1" d="M1143.3,87.6h8v18.5h0.1c2-3.3,6.1-5.7,10.8-5.7c7.8,0,12.8,4.2,12.8,12.3v24.8h-8v-22.7
	c-0.1-5.7-2.4-8.1-7.1-8.1c-5.3,0-8.7,4.2-8.7,9.5v21.3h-8L1143.3,87.6L1143.3,87.6z"/>
<path class="st1" d="M268.3,113.7L219.8,25H41.1C32.2,25,25,32.3,25,41.3v144.9c0,9,7.2,16.3,16.1,16.3h178.5L268.3,113.7z
	 M115.8,153.7h-14.5L65.6,95.3h-0.3v58.4H52.2V74.3h14.5l35.8,58.5h0.2V74.3h13.1C115.8,74.3,115.8,153.7,115.8,153.7z M143,153.7
	h-13.7V74.3H143V153.7z M219.9,74.3v79.4h-13.7v-35.8h-35.7v35.8h-13.7V74.3h13.7v31.6h35.7V74.3H219.9z"/>
<path class="st2" d="M231.8,202.6l48.6-88.9L232,25h12.1c6.6,0,14.7,4.8,17.9,10.7l42.6,78l-42.8,78.2c-3.2,5.9-11.3,10.7-17.9,10.7
	L231.8,202.6L231.8,202.6z"/>
</svg>
